<svg id="svg" version="1.1" xmlns="http://www.w3.org/2000/svg" xmlns:xlink="http://www.w3.org/1999/xlink" width="400" height="400" viewBox="0, 0, 400,400"><g id="svgg"><path id="path0" d="M175.752 0.700 C 175.866 1.085,176.152 2.834,176.388 4.588 C 176.623 6.341,176.978 8.411,177.176 9.188 C 177.375 9.964,177.656 11.950,177.801 13.600 C 177.947 15.250,178.302 17.680,178.590 19.000 C 178.878 20.320,179.239 22.660,179.392 24.200 C 179.546 25.740,179.909 28.080,180.200 29.400 C 180.491 30.720,180.848 33.240,180.994 35.000 C 181.140 36.760,181.501 39.190,181.796 40.400 C 182.092 41.610,182.456 44.130,182.607 46.000 C 182.757 47.870,183.116 50.480,183.404 51.800 C 183.692 53.120,184.049 55.640,184.196 57.400 C 184.344 59.160,184.633 61.375,184.839 62.322 C 185.045 63.270,185.484 66.488,185.815 69.475 C 186.147 72.461,186.498 75.035,186.597 75.195 C 186.695 75.354,187.047 78.311,187.378 81.764 C 187.709 85.218,188.064 88.180,188.168 88.348 C 188.272 88.516,188.555 90.982,188.798 93.827 C 189.041 96.672,189.485 100.620,189.785 102.600 C 190.085 104.580,190.446 108.075,190.588 110.366 C 190.730 112.657,191.015 115.424,191.222 116.513 C 191.428 117.603,191.777 120.949,191.997 123.948 C 192.217 126.946,192.663 132.100,192.988 135.400 C 193.314 138.700,193.764 144.280,193.989 147.800 C 194.215 151.320,194.572 156.270,194.784 158.800 C 194.996 161.330,195.367 169.070,195.608 176.000 C 196.478 200.981,196.751 207.197,196.998 207.597 C 197.330 208.133,199.157 207.666,200.354 206.739 C 200.879 206.333,201.622 206.000,202.005 206.000 C 202.388 206.000,202.922 205.735,203.191 205.411 C 203.460 205.086,204.286 204.708,205.026 204.569 C 205.766 204.430,206.570 204.077,206.813 203.784 C 207.056 203.491,207.828 203.130,208.528 202.981 C 209.227 202.833,210.070 202.478,210.400 202.193 C 210.730 201.908,211.757 201.473,212.683 201.226 C 213.609 200.980,214.474 200.603,214.607 200.389 C 214.739 200.175,215.152 199.994,215.524 199.987 C 215.896 199.981,217.100 199.532,218.200 198.991 C 219.300 198.450,220.470 198.000,220.800 197.991 C 221.130 197.982,221.749 197.710,222.176 197.387 C 222.604 197.064,223.236 196.800,223.582 196.800 C 223.929 196.800,224.839 196.464,225.606 196.053 C 226.373 195.643,227.630 195.173,228.400 195.009 C 229.170 194.845,230.070 194.481,230.400 194.200 C 230.730 193.919,231.627 193.555,232.394 193.392 C 233.161 193.229,234.151 192.862,234.594 192.577 C 235.037 192.292,236.077 191.935,236.904 191.784 C 237.732 191.633,238.504 191.355,238.621 191.166 C 238.738 190.976,239.591 190.628,240.517 190.392 C 241.443 190.155,242.740 189.712,243.400 189.407 C 244.785 188.766,247.907 187.729,250.152 187.164 C 251.005 186.949,252.081 186.509,252.541 186.186 C 253.001 185.864,253.798 185.600,254.311 185.600 C 254.824 185.600,255.999 185.260,256.922 184.845 C 257.845 184.430,259.227 183.957,259.994 183.793 C 260.761 183.629,261.751 183.269,262.194 182.992 C 262.637 182.716,263.667 182.373,264.483 182.230 C 265.299 182.087,266.469 181.708,267.083 181.388 C 267.697 181.067,268.560 180.803,269.000 180.800 C 269.440 180.797,270.336 180.515,270.992 180.174 C 271.647 179.832,273.086 179.359,274.188 179.122 C 275.290 178.886,276.554 178.467,276.996 178.191 C 277.438 177.915,278.467 177.573,279.283 177.430 C 280.099 177.287,281.269 176.908,281.883 176.588 C 282.497 176.267,283.450 175.998,284.000 175.989 C 284.550 175.980,285.720 175.625,286.600 175.200 C 287.480 174.775,288.650 174.415,289.200 174.400 C 289.750 174.385,290.920 174.025,291.800 173.600 C 292.680 173.175,293.760 172.815,294.200 172.800 C 294.640 172.785,295.720 172.425,296.600 172.000 C 297.480 171.575,298.650 171.215,299.200 171.200 C 299.750 171.185,300.920 170.825,301.800 170.400 C 302.680 169.975,303.760 169.615,304.200 169.600 C 304.640 169.585,305.720 169.225,306.600 168.800 C 307.480 168.375,308.557 168.021,308.992 168.014 C 309.428 168.006,310.688 167.661,311.792 167.248 C 315.075 166.018,316.491 165.540,318.600 164.952 C 319.700 164.646,321.167 164.126,321.860 163.797 C 322.554 163.469,323.418 163.200,323.780 163.200 C 324.143 163.200,324.932 162.945,325.534 162.634 C 326.135 162.323,327.341 161.940,328.214 161.783 C 329.086 161.625,330.250 161.264,330.800 160.980 C 331.815 160.456,334.499 159.514,337.400 158.664 C 338.280 158.406,339.220 158.053,339.489 157.880 C 339.943 157.589,342.352 156.704,346.200 155.415 C 347.080 155.120,348.340 154.592,349.000 154.242 C 349.660 153.892,350.477 153.604,350.815 153.602 C 351.154 153.601,352.137 153.240,353.000 152.800 C 353.863 152.360,354.851 152.000,355.196 152.000 C 355.540 152.000,356.178 151.751,356.613 151.446 C 357.048 151.141,358.033 150.699,358.802 150.463 C 361.778 149.550,364.476 148.484,364.908 148.052 C 365.157 147.803,365.605 147.600,365.905 147.600 C 366.385 147.600,368.123 146.883,372.200 145.005 C 372.860 144.701,374.480 143.970,375.800 143.381 C 377.120 142.792,378.932 141.971,379.826 141.555 C 380.721 141.140,381.644 140.800,381.877 140.800 C 382.111 140.800,382.517 140.542,382.779 140.226 C 383.041 139.910,383.770 139.538,384.400 139.400 C 385.030 139.262,385.755 138.895,386.013 138.585 C 386.270 138.275,387.080 137.909,387.812 137.771 C 388.545 137.634,389.241 137.269,389.360 136.961 C 389.478 136.652,389.941 136.400,390.387 136.400 C 391.024 136.400,391.200 136.140,391.200 135.200 C 391.200 134.277,391.020 134.000,390.420 134.000 C 389.751 134.000,389.623 133.673,389.520 131.700 C 389.430 129.976,389.250 129.400,388.800 129.400 C 388.350 129.400,388.170 128.824,388.080 127.100 C 387.977 125.127,387.849 124.800,387.180 124.800 C 386.537 124.800,386.400 124.520,386.400 123.200 C 386.400 121.867,386.267 121.600,385.600 121.600 C 384.874 121.600,384.451 119.584,384.745 117.524 C 384.766 117.373,384.427 117.136,383.992 116.997 C 383.380 116.803,383.200 116.389,383.200 115.173 C 383.200 113.867,383.064 113.600,382.400 113.600 C 381.733 113.600,381.600 113.333,381.600 112.000 C 381.600 110.667,381.467 110.400,380.800 110.400 C 380.133 110.400,380.000 110.133,380.000 108.800 C 380.000 107.467,379.867 107.200,379.200 107.200 C 378.548 107.200,378.400 106.933,378.400 105.763 C 378.400 104.662,378.213 104.276,377.600 104.116 C 377.058 103.974,376.798 103.567,376.794 102.853 C 376.787 101.681,376.298 100.705,375.755 100.782 C 375.560 100.809,375.342 100.465,375.272 100.016 C 375.202 99.567,374.887 99.200,374.572 99.200 C 374.182 99.200,374.000 98.743,374.000 97.763 C 374.000 96.690,373.808 96.275,373.246 96.128 C 372.730 95.993,372.411 95.430,372.238 94.346 C 372.096 93.462,371.811 92.870,371.592 93.005 C 371.375 93.139,371.023 92.787,370.809 92.224 C 370.595 91.661,370.145 91.200,369.810 91.200 C 369.432 91.200,369.200 90.833,369.200 90.233 C 369.200 88.870,368.804 88.000,368.184 88.000 C 367.893 88.000,367.540 87.640,367.400 87.200 C 367.260 86.760,366.888 86.400,366.573 86.400 C 366.208 86.400,366.000 85.981,366.000 85.249 C 366.000 84.096,365.158 82.976,364.663 83.470 C 364.518 83.615,364.400 83.355,364.400 82.894 C 364.400 82.405,364.065 81.948,363.600 81.800 C 363.160 81.660,362.800 81.300,362.800 81.000 C 362.800 80.700,362.440 80.340,362.000 80.200 C 361.405 80.011,361.200 79.595,361.200 78.573 C 361.200 77.467,361.045 77.200,360.400 77.200 C 359.867 77.200,359.600 76.933,359.600 76.400 C 359.600 75.867,359.333 75.600,358.800 75.600 C 358.267 75.600,358.000 75.333,358.000 74.800 C 358.000 74.267,357.733 74.000,357.200 74.000 C 356.437 74.000,356.165 73.231,356.377 71.669 C 356.417 71.377,356.078 71.041,355.625 70.922 C 355.160 70.801,354.800 70.378,354.800 69.953 C 354.800 69.467,354.517 69.200,354.000 69.200 C 353.467 69.200,353.200 68.933,353.200 68.400 C 353.200 67.867,352.933 67.600,352.400 67.600 C 351.867 67.600,351.600 67.333,351.600 66.800 C 351.600 66.267,351.333 66.000,350.800 66.000 C 350.267 66.000,350.000 65.733,350.000 65.200 C 350.000 64.667,349.733 64.400,349.200 64.400 C 348.667 64.400,348.400 64.133,348.400 63.600 C 348.400 63.067,348.133 62.800,347.600 62.800 C 347.067 62.800,346.800 62.533,346.800 62.000 C 346.800 61.467,346.533 61.200,346.000 61.200 C 345.467 61.200,345.200 60.933,345.200 60.400 C 345.200 59.867,344.933 59.600,344.400 59.600 C 343.867 59.600,343.600 59.333,343.600 58.800 C 343.600 58.267,343.333 58.000,342.800 58.000 C 342.267 58.000,342.000 57.733,342.000 57.200 C 342.000 56.667,341.733 56.400,341.200 56.400 C 340.667 56.400,340.400 56.133,340.400 55.600 C 340.400 55.067,340.133 54.800,339.600 54.800 C 339.067 54.800,338.800 54.533,338.800 54.000 C 338.800 53.467,338.533 53.200,338.000 53.200 C 337.467 53.200,337.200 52.933,337.200 52.400 C 337.200 51.867,336.933 51.600,336.400 51.600 C 335.867 51.600,335.600 51.333,335.600 50.800 C 335.600 50.267,335.333 50.000,334.800 50.000 C 334.267 50.000,334.000 49.733,334.000 49.200 C 334.000 48.667,333.733 48.400,333.200 48.400 C 332.667 48.400,332.400 48.133,332.400 47.600 C 332.400 47.083,332.133 46.800,331.647 46.800 C 331.230 46.800,330.800 46.443,330.684 46.000 C 330.569 45.560,330.209 45.200,329.884 45.200 C 329.559 45.200,329.198 44.835,329.081 44.389 C 328.964 43.942,328.718 43.604,328.534 43.636 C 327.083 43.891,326.000 43.534,326.000 42.800 C 326.000 42.360,325.742 42.000,325.427 42.000 C 325.112 42.000,324.740 41.640,324.600 41.200 C 324.460 40.760,324.095 40.400,323.787 40.400 C 323.480 40.400,323.035 40.040,322.800 39.600 C 322.520 39.076,321.962 38.800,321.186 38.800 C 320.367 38.800,320.000 38.602,320.000 38.163 C 320.000 37.812,319.640 37.431,319.200 37.316 C 318.760 37.201,318.400 36.858,318.400 36.553 C 318.400 36.249,318.227 36.000,318.016 36.000 C 317.804 36.000,317.254 35.595,316.793 35.100 C 315.944 34.189,315.831 34.139,314.400 34.050 C 313.960 34.023,313.600 33.742,313.600 33.427 C 313.600 33.112,313.240 32.740,312.800 32.600 C 312.360 32.460,312.000 32.088,312.000 31.773 C 312.000 31.458,311.820 31.177,311.600 31.150 C 311.380 31.123,311.020 31.055,310.800 31.000 C 310.580 30.945,310.061 30.877,309.647 30.850 C 309.232 30.822,308.794 30.422,308.674 29.960 C 308.544 29.463,308.268 29.234,308.000 29.400 C 307.732 29.566,307.456 29.337,307.326 28.840 C 307.206 28.378,306.768 27.977,306.353 27.950 C 305.939 27.923,305.420 27.855,305.200 27.800 C 304.980 27.745,304.620 27.677,304.400 27.650 C 304.180 27.623,304.000 27.330,304.000 27.000 C 304.000 26.432,303.123 26.214,301.500 26.379 C 301.037 26.426,300.800 26.171,300.800 25.625 C 300.800 25.007,300.544 24.800,299.776 24.800 C 299.127 24.800,298.853 24.637,299.028 24.355 C 299.392 23.766,298.466 23.214,297.100 23.206 C 296.269 23.201,296.000 23.005,296.000 22.400 C 296.000 21.733,295.733 21.600,294.400 21.600 C 293.067 21.600,292.800 21.467,292.800 20.800 C 292.800 20.133,292.533 20.000,291.200 20.000 C 289.867 20.000,289.600 19.867,289.600 19.200 C 289.600 18.533,289.333 18.400,288.000 18.400 C 286.682 18.400,286.400 18.263,286.400 17.623 C 286.400 17.003,286.075 16.821,284.793 16.723 C 283.909 16.655,283.204 16.440,283.227 16.245 C 283.302 15.596,282.222 15.212,280.300 15.206 C 278.669 15.201,278.400 15.087,278.400 14.400 C 278.400 13.733,278.133 13.600,276.800 13.600 C 275.467 13.600,275.200 13.467,275.200 12.800 C 275.200 12.099,274.933 12.000,273.047 12.000 C 271.230 12.000,270.861 11.875,270.684 11.200 C 270.506 10.520,270.138 10.400,268.237 10.400 C 266.267 10.400,266.000 10.305,266.000 9.600 C 266.000 8.889,265.733 8.800,263.600 8.800 C 261.467 8.800,261.200 8.711,261.200 8.000 C 261.200 7.289,260.933 7.200,258.800 7.200 C 256.667 7.200,256.400 7.111,256.400 6.400 C 256.400 5.682,256.133 5.600,253.800 5.600 C 251.844 5.600,251.200 5.462,251.200 5.043 C 251.200 4.216,250.280 4.000,246.767 4.000 C 243.867 4.000,243.600 3.933,243.600 3.200 C 243.600 2.453,243.333 2.400,239.600 2.400 C 235.867 2.400,235.600 2.347,235.600 1.600 C 235.600 0.844,235.333 0.800,230.800 0.800 C 227.867 0.800,226.000 0.644,226.000 0.400 C 226.000 0.138,217.324 0.000,200.773 0.000 C 176.935 0.000,175.557 0.039,175.752 0.700 M149.600 4.424 C 149.600 4.657,149.450 4.755,149.267 4.641 C 149.083 4.528,148.933 4.697,148.933 5.018 C 148.933 5.748,148.899 5.755,150.000 4.800 C 150.736 4.161,150.789 4.000,150.261 4.000 C 149.898 4.000,149.600 4.191,149.600 4.424 M4.641 149.267 C 4.755 149.450,4.657 149.600,4.424 149.600 C 4.191 149.600,4.000 149.898,4.000 150.261 C 4.000 150.789,4.161 150.736,4.800 150.000 C 5.755 148.899,5.748 148.933,5.018 148.933 C 4.697 148.933,4.528 149.083,4.641 149.267 M4.000 250.037 C 4.000 250.237,4.191 250.400,4.424 250.400 C 4.657 250.400,4.755 250.550,4.641 250.733 C 4.528 250.917,4.697 251.067,5.018 251.067 C 5.892 251.067,5.718 250.124,4.800 249.884 C 4.360 249.769,4.000 249.838,4.000 250.037 " stroke="none" fill="#fc9494" fill-rule="evenodd"></path><path id="path1" d="M388.942 138.277 C 388.470 138.369,387.767 138.795,387.380 139.222 C 386.993 139.650,386.442 140.000,386.157 140.000 C 385.872 140.000,384.311 140.699,382.690 141.553 C 381.068 142.407,379.182 143.228,378.499 143.378 C 377.815 143.529,377.041 143.910,376.779 144.226 C 376.517 144.542,376.045 144.800,375.730 144.800 C 375.416 144.800,374.448 145.160,373.579 145.600 C 372.711 146.040,371.289 146.760,370.421 147.200 C 369.552 147.640,368.517 148.001,368.121 148.003 C 367.724 148.004,366.860 148.363,366.200 148.800 C 365.540 149.237,364.727 149.596,364.394 149.597 C 364.061 149.599,363.116 149.960,362.296 150.400 C 361.475 150.840,360.464 151.200,360.050 151.200 C 359.637 151.200,359.078 151.465,358.809 151.789 C 358.540 152.114,357.663 152.495,356.860 152.638 C 356.057 152.781,354.839 153.235,354.153 153.649 C 353.467 154.062,352.611 154.400,352.251 154.400 C 351.892 154.400,350.925 154.760,350.104 155.200 C 349.284 155.640,348.294 156.000,347.904 156.000 C 347.515 156.000,346.525 156.360,345.704 156.800 C 344.884 157.240,343.894 157.600,343.504 157.600 C 343.115 157.600,342.125 157.960,341.304 158.400 C 340.484 158.840,339.494 159.200,339.104 159.200 C 338.715 159.200,337.725 159.560,336.904 160.000 C 336.084 160.440,335.094 160.800,334.704 160.800 C 334.315 160.800,333.325 161.160,332.504 161.600 C 331.684 162.040,330.552 162.400,329.991 162.400 C 329.429 162.400,328.263 162.760,327.400 163.200 C 326.537 163.640,325.459 164.000,325.004 164.000 C 324.550 164.000,323.823 164.247,323.389 164.549 C 322.955 164.851,321.970 165.224,321.200 165.379 C 320.430 165.533,318.900 165.985,317.800 166.382 C 314.236 167.670,313.028 168.066,311.400 168.482 C 310.520 168.707,309.068 169.231,308.174 169.646 C 307.279 170.061,306.104 170.400,305.563 170.400 C 305.021 170.400,304.201 170.664,303.740 170.987 C 303.279 171.310,302.148 171.695,301.228 171.842 C 300.307 171.989,298.896 172.445,298.093 172.855 C 297.289 173.265,296.210 173.600,295.696 173.600 C 295.181 173.600,294.274 173.849,293.680 174.153 C 293.086 174.457,291.790 174.836,290.800 174.996 C 289.810 175.156,288.730 175.518,288.400 175.800 C 288.070 176.082,286.994 176.445,286.009 176.607 C 285.024 176.769,283.854 177.131,283.409 177.412 C 282.964 177.693,281.794 178.053,280.809 178.212 C 279.824 178.371,278.654 178.728,278.209 179.006 C 277.764 179.283,276.699 179.634,275.842 179.784 C 274.984 179.935,273.904 180.298,273.442 180.591 C 272.979 180.884,271.800 181.252,270.823 181.410 C 269.846 181.567,268.820 181.923,268.543 182.200 C 268.266 182.477,267.191 182.831,266.153 182.986 C 265.115 183.142,263.892 183.510,263.433 183.805 C 262.975 184.100,261.880 184.467,261.000 184.621 C 260.120 184.775,259.130 185.133,258.800 185.415 C 258.470 185.698,257.351 186.054,256.313 186.208 C 255.275 186.361,254.218 186.737,253.964 187.043 C 253.710 187.350,253.026 187.600,252.445 187.600 C 251.864 187.600,250.716 187.960,249.896 188.400 C 249.075 188.840,247.995 189.200,247.496 189.200 C 246.996 189.200,245.916 189.560,245.096 190.000 C 244.275 190.440,243.285 190.800,242.896 190.800 C 242.506 190.800,241.516 191.160,240.696 191.600 C 239.875 192.040,238.885 192.400,238.496 192.400 C 238.106 192.400,237.161 192.732,236.394 193.138 C 235.627 193.543,234.405 193.991,233.677 194.132 C 232.949 194.274,232.081 194.662,231.748 194.995 C 231.415 195.328,230.748 195.600,230.266 195.600 C 229.783 195.600,228.716 195.960,227.896 196.400 C 227.075 196.840,226.175 197.200,225.896 197.200 C 225.616 197.200,224.716 197.560,223.896 198.000 C 223.075 198.440,222.177 198.806,221.901 198.814 C 221.626 198.821,220.680 199.175,219.800 199.600 C 218.920 200.025,217.868 200.379,217.463 200.386 C 217.058 200.394,216.269 200.760,215.709 201.200 C 215.150 201.640,214.340 202.000,213.909 202.000 C 213.479 202.000,212.669 202.360,212.109 202.800 C 211.550 203.240,210.747 203.600,210.325 203.600 C 209.904 203.600,208.893 203.942,208.079 204.360 C 204.036 206.438,203.254 206.800,202.809 206.800 C 202.543 206.800,201.869 207.160,201.309 207.600 C 200.750 208.040,199.988 208.400,199.616 208.400 C 199.244 208.400,198.511 208.857,197.986 209.414 L 197.033 210.429 196.759 224.114 C 196.608 231.642,196.381 238.070,196.255 238.400 C 196.129 238.730,195.835 244.267,195.602 250.704 C 195.369 257.141,194.993 263.351,194.768 264.504 C 194.543 265.657,194.193 269.277,193.990 272.548 C 193.788 275.820,193.357 280.050,193.033 281.948 C 192.709 283.847,192.336 286.929,192.204 288.798 C 192.073 290.667,191.715 293.367,191.409 294.798 C 191.103 296.229,190.736 298.912,190.594 300.760 C 190.451 302.608,190.155 304.588,189.935 305.160 C 189.715 305.732,189.360 307.895,189.147 309.966 C 188.933 312.037,188.572 314.079,188.345 314.502 C 188.118 314.926,187.770 316.922,187.571 318.937 C 187.372 320.951,186.945 323.320,186.622 324.200 C 186.299 325.080,186.019 326.520,186.000 327.400 C 185.981 328.280,185.706 329.720,185.389 330.600 C 185.072 331.480,184.705 333.100,184.574 334.200 C 184.443 335.300,184.012 337.370,183.617 338.800 C 183.223 340.230,182.697 342.345,182.450 343.500 C 182.202 344.655,181.799 346.545,181.553 347.700 C 181.308 348.855,180.780 350.790,180.380 352.000 C 179.980 353.210,179.541 355.051,179.403 356.091 C 179.266 357.131,179.003 358.075,178.818 358.189 C 178.634 358.303,178.274 359.596,178.019 361.062 C 177.763 362.528,177.295 364.230,176.977 364.844 C 176.660 365.458,176.399 366.464,176.398 367.080 C 176.396 367.696,176.118 368.732,175.779 369.382 C 175.440 370.032,175.059 371.382,174.933 372.382 C 174.807 373.382,174.479 374.564,174.203 375.009 C 173.927 375.454,173.567 376.624,173.403 377.609 C 173.239 378.594,172.872 379.856,172.587 380.414 C 172.302 380.971,171.943 382.141,171.789 383.014 C 171.636 383.886,171.274 384.979,170.984 385.442 C 170.695 385.904,170.335 386.984,170.184 387.842 C 170.034 388.699,169.674 389.779,169.384 390.242 C 169.095 390.704,168.730 391.784,168.573 392.642 C 168.416 393.499,167.905 395.010,167.437 396.000 C 166.051 398.932,166.099 398.984,170.300 399.115 C 172.335 399.178,174.000 399.403,174.000 399.615 C 174.000 399.858,183.609 400.000,200.000 400.000 C 217.067 400.000,226.000 399.863,226.000 399.600 C 226.000 399.356,227.867 399.200,230.800 399.200 C 235.333 399.200,235.600 399.156,235.600 398.400 C 235.600 397.653,235.867 397.600,239.600 397.600 C 243.333 397.600,243.600 397.547,243.600 396.800 C 243.600 396.067,243.867 396.000,246.767 396.000 C 250.280 396.000,251.200 395.784,251.200 394.957 C 251.200 394.538,251.844 394.400,253.800 394.400 C 256.133 394.400,256.400 394.318,256.400 393.600 C 256.400 392.889,256.667 392.800,258.800 392.800 C 260.933 392.800,261.200 392.711,261.200 392.000 C 261.200 391.289,261.467 391.200,263.600 391.200 C 265.733 391.200,266.000 391.111,266.000 390.400 C 266.000 389.695,266.267 389.600,268.237 389.600 C 270.138 389.600,270.506 389.480,270.684 388.800 C 270.861 388.125,271.230 388.000,273.047 388.000 C 274.933 388.000,275.200 387.901,275.200 387.200 C 275.200 386.533,275.467 386.400,276.800 386.400 C 278.133 386.400,278.400 386.267,278.400 385.600 C 278.400 384.895,278.667 384.800,280.637 384.800 C 282.538 384.800,282.906 384.680,283.084 384.000 C 283.248 383.373,283.630 383.200,284.847 383.200 C 286.133 383.200,286.400 383.063,286.400 382.400 C 286.400 381.733,286.667 381.600,288.000 381.600 C 289.333 381.600,289.600 381.467,289.600 380.800 C 289.600 380.133,289.867 380.000,291.200 380.000 C 292.533 380.000,292.800 379.867,292.800 379.200 C 292.800 378.533,293.067 378.400,294.400 378.400 C 295.733 378.400,296.000 378.267,296.000 377.600 C 296.000 376.948,296.267 376.800,297.437 376.800 C 298.538 376.800,298.924 376.613,299.084 376.000 C 299.200 375.557,299.630 375.200,300.047 375.200 C 300.461 375.200,300.800 374.930,300.800 374.600 C 300.800 374.178,301.226 374.000,302.237 374.000 C 303.310 374.000,303.725 373.808,303.872 373.246 C 304.007 372.732,304.569 372.411,305.635 372.241 C 306.642 372.080,307.200 371.778,307.200 371.395 C 307.200 371.068,307.487 370.800,307.837 370.800 C 308.188 370.800,308.569 370.440,308.684 370.000 C 308.817 369.492,309.230 369.200,309.814 369.200 C 311.151 369.200,312.000 368.795,312.000 368.157 C 312.000 367.851,312.287 367.600,312.637 367.600 C 312.988 367.600,313.369 367.240,313.484 366.800 C 313.631 366.238,314.030 366.000,314.824 366.000 C 315.458 366.000,316.184 365.681,316.477 365.274 C 316.765 364.874,317.315 364.430,317.700 364.286 C 318.085 364.143,318.400 363.749,318.400 363.413 C 318.400 363.076,318.687 362.800,319.037 362.800 C 319.388 362.800,319.769 362.440,319.884 362.000 C 320.043 361.394,320.430 361.200,321.484 361.200 C 322.538 361.200,322.925 361.006,323.084 360.400 C 323.199 359.960,323.559 359.600,323.884 359.600 C 324.209 359.600,324.569 359.240,324.684 358.800 C 324.799 358.360,325.142 358.000,325.447 358.000 C 325.751 358.000,326.000 357.640,326.000 357.200 C 326.000 356.548,326.267 356.400,327.437 356.400 C 328.538 356.400,328.924 356.213,329.084 355.600 C 329.200 355.157,329.630 354.800,330.047 354.800 C 330.533 354.800,330.800 354.517,330.800 354.000 C 330.800 353.467,331.067 353.200,331.600 353.200 C 332.133 353.200,332.400 352.933,332.400 352.400 C 332.400 351.867,332.667 351.600,333.200 351.600 C 333.733 351.600,334.000 351.333,334.000 350.800 C 334.000 350.267,334.267 350.000,334.800 350.000 C 335.333 350.000,335.600 349.733,335.600 349.200 C 335.600 348.667,335.867 348.400,336.400 348.400 C 336.933 348.400,337.200 348.133,337.200 347.600 C 337.200 347.067,337.467 346.800,338.000 346.800 C 338.533 346.800,338.800 346.533,338.800 346.000 C 338.800 345.467,339.067 345.200,339.600 345.200 C 340.133 345.200,340.400 344.933,340.400 344.400 C 340.400 343.867,340.667 343.600,341.200 343.600 C 341.733 343.600,342.000 343.333,342.000 342.800 C 342.000 342.267,342.267 342.000,342.800 342.000 C 343.333 342.000,343.600 341.733,343.600 341.200 C 343.600 340.667,343.867 340.400,344.400 340.400 C 344.933 340.400,345.200 340.133,345.200 339.600 C 345.200 339.067,345.467 338.800,346.000 338.800 C 346.533 338.800,346.800 338.533,346.800 338.000 C 346.800 337.467,347.067 337.200,347.600 337.200 C 348.133 337.200,348.400 336.933,348.400 336.400 C 348.400 335.867,348.667 335.600,349.200 335.600 C 349.733 335.600,350.000 335.333,350.000 334.800 C 350.000 334.267,350.267 334.000,350.800 334.000 C 351.333 334.000,351.600 333.733,351.600 333.200 C 351.600 332.667,351.867 332.400,352.400 332.400 C 352.933 332.400,353.200 332.133,353.200 331.600 C 353.200 331.067,353.467 330.800,354.000 330.800 C 354.517 330.800,354.800 330.533,354.800 330.047 C 354.800 329.630,355.157 329.200,355.600 329.084 C 356.213 328.924,356.400 328.538,356.400 327.437 C 356.400 326.267,356.548 326.000,357.200 326.000 C 357.640 326.000,358.000 325.751,358.000 325.447 C 358.000 325.142,358.360 324.799,358.800 324.684 C 359.240 324.569,359.600 324.209,359.600 323.884 C 359.600 323.559,359.960 323.199,360.400 323.084 C 361.006 322.925,361.200 322.538,361.200 321.484 C 361.200 320.430,361.394 320.043,362.000 319.884 C 362.440 319.769,362.800 319.388,362.800 319.037 C 362.800 318.687,363.076 318.400,363.413 318.400 C 363.749 318.400,364.143 318.085,364.286 317.700 C 364.430 317.315,364.874 316.765,365.274 316.477 C 365.681 316.184,366.000 315.458,366.000 314.824 C 366.000 314.030,366.238 313.631,366.800 313.484 C 367.240 313.369,367.600 312.988,367.600 312.637 C 367.600 312.287,367.851 312.000,368.157 312.000 C 368.795 312.000,369.200 311.151,369.200 309.814 C 369.200 309.230,369.492 308.817,370.000 308.684 C 370.440 308.569,370.800 308.188,370.800 307.837 C 370.800 307.487,371.068 307.200,371.395 307.200 C 371.778 307.200,372.080 306.642,372.241 305.635 C 372.411 304.569,372.732 304.007,373.246 303.872 C 373.808 303.725,374.000 303.310,374.000 302.237 C 374.000 301.226,374.178 300.800,374.600 300.800 C 374.930 300.800,375.200 300.461,375.200 300.047 C 375.200 299.630,375.557 299.200,376.000 299.084 C 376.613 298.924,376.800 298.538,376.800 297.437 C 376.800 296.267,376.948 296.000,377.600 296.000 C 378.267 296.000,378.400 295.733,378.400 294.400 C 378.400 293.067,378.533 292.800,379.200 292.800 C 379.867 292.800,380.000 292.533,380.000 291.200 C 380.000 289.867,380.133 289.600,380.800 289.600 C 381.467 289.600,381.600 289.333,381.600 288.000 C 381.600 286.667,381.733 286.400,382.400 286.400 C 383.063 286.400,383.200 286.133,383.200 284.847 C 383.200 283.630,383.373 283.248,384.000 283.084 C 384.680 282.906,384.800 282.538,384.800 280.637 C 384.800 278.667,384.895 278.400,385.600 278.400 C 386.267 278.400,386.400 278.133,386.400 276.800 C 386.400 275.467,386.533 275.200,387.200 275.200 C 387.901 275.200,388.000 274.933,388.000 273.047 C 388.000 271.230,388.125 270.861,388.800 270.684 C 389.480 270.506,389.600 270.138,389.600 268.237 C 389.600 266.267,389.695 266.000,390.400 266.000 C 391.111 266.000,391.200 265.733,391.200 263.600 C 391.200 261.467,391.289 261.200,392.000 261.200 C 392.711 261.200,392.800 260.933,392.800 258.800 C 392.800 256.667,392.889 256.400,393.600 256.400 C 394.318 256.400,394.400 256.133,394.400 253.800 C 394.400 251.844,394.538 251.200,394.957 251.200 C 395.784 251.200,396.000 250.280,396.000 246.767 C 396.000 243.867,396.067 243.600,396.800 243.600 C 397.547 243.600,397.600 243.333,397.600 239.600 C 397.600 235.867,397.653 235.600,398.400 235.600 C 399.156 235.600,399.200 235.333,399.200 230.800 C 399.200 227.867,399.356 226.000,399.600 226.000 C 399.863 226.000,400.000 217.067,400.000 200.000 C 400.000 182.933,399.863 174.000,399.600 174.000 C 399.356 174.000,399.200 172.133,399.200 169.200 C 399.200 164.667,399.156 164.400,398.400 164.400 C 397.653 164.400,397.600 164.133,397.600 160.400 C 397.600 156.667,397.547 156.400,396.800 156.400 C 396.067 156.400,396.000 156.133,396.000 153.233 C 396.000 149.720,395.784 148.800,394.957 148.800 C 394.538 148.800,394.400 148.156,394.400 146.200 C 394.400 143.867,394.318 143.600,393.600 143.600 C 392.889 143.600,392.800 143.333,392.800 141.200 C 392.800 139.067,392.711 138.800,392.000 138.800 C 391.560 138.800,391.200 138.620,391.200 138.400 C 391.200 137.999,390.545 137.963,388.942 138.277 " stroke="none" fill="#fcfbfb" fill-rule="evenodd"></path><path id="path2" d="M174.800 0.400 C 174.800 0.642,173.096 0.802,170.500 0.805 C 165.701 0.812,164.400 1.034,164.400 1.847 C 164.400 2.274,163.628 2.400,161.000 2.400 C 158.133 2.400,157.475 2.525,156.800 3.200 C 156.168 3.832,155.467 4.000,153.461 4.000 C 151.497 4.000,150.714 4.181,150.000 4.800 C 149.207 5.488,146.092 5.932,143.947 5.663 C 143.808 5.646,143.718 5.939,143.747 6.316 C 143.790 6.867,143.394 7.023,141.703 7.121 C 140.112 7.212,139.505 7.430,139.189 8.021 C 138.848 8.657,138.342 8.800,136.430 8.800 C 134.446 8.800,134.097 8.907,134.144 9.500 C 134.190 10.075,133.772 10.236,131.800 10.400 C 129.796 10.567,129.419 10.715,129.518 11.300 C 129.618 11.896,129.309 12.000,127.444 12.000 C 125.605 12.000,125.213 12.128,125.000 12.800 C 124.803 13.421,124.395 13.600,123.173 13.600 C 121.867 13.600,121.600 13.736,121.600 14.400 C 121.600 15.067,121.333 15.200,120.000 15.200 C 117.826 15.200,116.606 15.741,117.066 16.500 C 117.165 16.665,116.695 16.800,116.020 16.800 C 115.287 16.800,114.516 17.123,114.107 17.600 C 113.674 18.106,112.927 18.400,112.074 18.400 C 111.062 18.400,110.673 18.600,110.516 19.200 C 110.360 19.797,109.970 20.000,108.980 20.000 C 108.005 20.000,107.587 20.212,107.400 20.800 C 107.241 21.301,106.795 21.600,106.206 21.600 C 104.781 21.600,104.026 22.002,104.268 22.633 C 104.418 23.023,104.191 23.202,103.543 23.205 C 101.692 23.216,100.741 23.647,101.241 24.249 C 101.613 24.697,101.465 24.800,100.449 24.800 C 99.762 24.800,99.221 24.935,99.247 25.100 C 99.388 25.990,99.124 26.443,98.500 26.379 C 97.010 26.228,96.445 26.429,96.200 27.200 C 96.044 27.692,95.595 28.000,95.035 28.000 C 94.534 28.000,93.792 28.366,93.387 28.814 C 92.982 29.262,92.397 29.531,92.088 29.412 C 91.751 29.283,91.444 29.512,91.320 29.985 C 91.100 30.826,89.873 31.416,89.204 31.002 C 88.982 30.865,88.800 30.954,88.800 31.200 C 88.800 31.446,88.589 31.517,88.332 31.358 C 88.025 31.168,87.945 31.281,88.100 31.685 C 88.255 32.086,88.000 32.454,87.368 32.742 C 86.836 32.984,86.400 33.338,86.400 33.527 C 86.400 33.717,85.686 34.108,84.813 34.396 C 83.941 34.684,83.313 35.059,83.419 35.231 C 83.525 35.402,83.249 35.657,82.806 35.798 C 82.363 35.939,82.000 36.312,82.000 36.627 C 82.000 36.942,81.713 37.200,81.363 37.200 C 81.012 37.200,80.635 37.543,80.526 37.962 C 80.402 38.434,79.841 38.816,79.051 38.964 C 78.349 39.096,77.461 39.570,77.077 40.019 C 76.693 40.467,76.203 40.726,75.989 40.593 C 75.775 40.461,75.600 40.723,75.600 41.176 C 75.600 41.663,75.339 42.000,74.963 42.000 C 74.612 42.000,74.231 42.360,74.116 42.800 C 74.001 43.240,73.655 43.600,73.348 43.600 C 72.617 43.600,71.087 44.464,70.675 45.108 C 70.497 45.388,70.170 45.505,69.948 45.368 C 69.727 45.231,69.449 45.492,69.330 45.947 C 69.211 46.401,68.773 46.882,68.357 47.014 C 67.941 47.146,67.600 47.491,67.600 47.780 C 67.600 48.070,67.240 48.401,66.800 48.516 C 66.360 48.631,66.000 49.012,66.000 49.363 C 66.000 49.733,65.665 50.000,65.200 50.000 C 64.667 50.000,64.400 50.267,64.400 50.800 C 64.400 51.333,64.133 51.600,63.600 51.600 C 63.083 51.600,62.800 51.867,62.800 52.353 C 62.800 52.770,62.443 53.200,62.000 53.316 C 61.560 53.431,61.200 53.791,61.200 54.116 C 61.200 54.441,60.840 54.801,60.400 54.916 C 59.960 55.031,59.600 55.412,59.600 55.763 C 59.600 56.133,59.265 56.400,58.800 56.400 C 58.267 56.400,58.000 56.667,58.000 57.200 C 58.000 57.733,57.733 58.000,57.200 58.000 C 56.683 58.000,56.400 58.267,56.400 58.753 C 56.400 59.170,56.043 59.600,55.600 59.716 C 55.160 59.831,54.800 60.191,54.800 60.516 C 54.800 60.841,54.440 61.201,54.000 61.316 C 53.560 61.431,53.200 61.812,53.200 62.163 C 53.200 62.533,52.865 62.800,52.400 62.800 C 51.867 62.800,51.600 63.067,51.600 63.600 C 51.600 64.133,51.333 64.400,50.800 64.400 C 50.283 64.400,50.000 64.667,50.000 65.153 C 50.000 65.570,49.643 66.000,49.200 66.116 C 48.760 66.231,48.400 66.612,48.400 66.963 C 48.400 67.313,48.142 67.600,47.827 67.600 C 47.512 67.600,47.146 67.941,47.014 68.357 C 46.882 68.773,46.401 69.211,45.947 69.330 C 45.492 69.449,45.231 69.727,45.368 69.948 C 45.505 70.170,45.388 70.497,45.108 70.675 C 44.464 71.087,43.600 72.617,43.600 73.348 C 43.600 73.655,43.240 74.001,42.800 74.116 C 42.360 74.231,42.000 74.612,42.000 74.963 C 42.000 75.333,41.665 75.600,41.200 75.600 C 40.760 75.600,40.421 75.735,40.447 75.900 C 40.576 76.712,40.346 77.200,39.835 77.200 C 39.490 77.200,39.168 77.808,39.007 78.761 C 38.826 79.830,38.500 80.385,37.971 80.523 C 37.547 80.634,37.200 81.012,37.200 81.363 C 37.200 81.713,36.942 82.000,36.627 82.000 C 36.312 82.000,35.939 82.363,35.798 82.806 C 35.657 83.249,35.402 83.525,35.231 83.419 C 35.059 83.313,34.684 83.941,34.396 84.813 C 34.108 85.686,33.717 86.400,33.527 86.400 C 33.338 86.400,32.984 86.836,32.742 87.368 C 32.454 88.000,32.086 88.255,31.685 88.100 C 31.281 87.945,31.168 88.025,31.358 88.332 C 31.517 88.589,31.446 88.800,31.200 88.800 C 30.954 88.800,30.865 88.982,31.002 89.204 C 31.416 89.873,30.826 91.100,29.985 91.320 C 29.512 91.444,29.283 91.751,29.412 92.088 C 29.531 92.397,29.262 92.982,28.814 93.387 C 28.366 93.792,28.000 94.534,28.000 95.035 C 28.000 95.595,27.692 96.044,27.200 96.200 C 26.429 96.445,26.228 97.010,26.379 98.500 C 26.443 99.124,25.990 99.388,25.100 99.247 C 24.935 99.221,24.800 99.762,24.800 100.449 C 24.800 101.465,24.697 101.613,24.249 101.241 C 23.647 100.741,23.216 101.692,23.205 103.543 C 23.202 104.191,23.023 104.418,22.633 104.268 C 22.005 104.027,21.600 104.780,21.600 106.186 C 21.600 106.770,21.308 107.183,20.800 107.316 C 20.194 107.475,20.000 107.862,20.000 108.916 C 20.000 109.970,19.806 110.357,19.200 110.516 C 18.600 110.673,18.400 111.062,18.400 112.074 C 18.400 112.927,18.106 113.674,17.600 114.107 C 17.123 114.516,16.800 115.287,16.800 116.020 C 16.800 116.695,16.665 117.165,16.500 117.066 C 16.216 116.894,14.887 118.057,15.100 118.290 C 15.664 118.910,15.095 121.600,14.400 121.600 C 13.736 121.600,13.600 121.867,13.600 123.173 C 13.600 124.395,13.421 124.803,12.800 125.000 C 12.128 125.213,12.000 125.605,12.000 127.444 C 12.000 129.309,11.896 129.618,11.300 129.518 C 10.715 129.419,10.567 129.796,10.400 131.800 C 10.236 133.772,10.075 134.190,9.500 134.144 C 8.907 134.097,8.800 134.446,8.800 136.430 C 8.800 138.342,8.657 138.848,8.021 139.189 C 7.430 139.505,7.212 140.112,7.121 141.703 C 7.023 143.394,6.867 143.790,6.316 143.747 C 5.939 143.718,5.646 143.808,5.663 143.947 C 5.932 146.092,5.488 149.207,4.800 150.000 C 4.181 150.714,4.000 151.497,4.000 153.461 C 4.000 155.467,3.832 156.168,3.200 156.800 C 2.525 157.475,2.400 158.133,2.400 161.000 C 2.400 163.628,2.274 164.400,1.847 164.400 C 1.041 164.400,0.812 165.697,0.805 170.300 C 0.802 172.763,0.640 174.400,0.400 174.400 C 0.138 174.400,0.000 183.200,0.000 200.000 C 0.000 216.800,0.138 225.600,0.400 225.600 C 0.645 225.600,0.800 227.533,0.800 230.600 C 0.800 235.333,0.843 235.600,1.600 235.600 C 2.343 235.600,2.400 235.867,2.400 239.373 C 2.400 242.795,2.474 243.170,3.200 243.400 C 3.907 243.624,4.000 244.005,4.000 246.664 C 4.000 249.338,4.089 249.698,4.800 249.884 C 5.512 250.070,5.987 253.467,5.663 256.053 C 5.646 256.192,5.939 256.282,6.316 256.253 C 6.840 256.212,7.025 256.573,7.107 257.800 C 7.262 260.125,7.573 261.264,7.984 261.010 C 8.548 260.661,8.746 261.272,8.843 263.668 C 8.913 265.413,9.068 265.879,9.566 265.845 C 10.030 265.812,10.229 266.228,10.307 267.400 C 10.469 269.833,10.764 270.805,11.307 270.698 C 11.635 270.633,11.840 271.295,11.920 272.679 C 12.015 274.328,12.202 274.810,12.820 275.006 C 13.422 275.197,13.600 275.619,13.600 276.851 C 13.600 277.729,13.744 278.358,13.919 278.250 C 14.625 277.814,15.159 278.718,15.251 280.506 C 15.325 281.923,15.530 282.451,16.075 282.624 C 16.631 282.800,16.800 283.266,16.800 284.627 C 16.800 285.602,16.935 286.379,17.100 286.353 C 18.020 286.207,18.400 286.504,18.400 287.367 C 18.400 288.748,18.798 289.600,19.443 289.600 C 19.920 289.600,20.253 291.199,20.047 292.500 C 20.021 292.665,20.135 292.779,20.300 292.753 C 21.257 292.602,21.600 292.927,21.600 293.986 C 21.600 294.762,21.876 295.320,22.400 295.600 C 22.840 295.835,23.200 296.354,23.200 296.752 C 23.200 297.150,23.560 297.802,24.000 298.200 C 24.440 298.598,24.800 299.346,24.800 299.862 C 24.800 300.523,25.029 300.800,25.573 300.800 C 26.165 300.800,26.339 301.069,26.314 301.942 C 26.276 303.287,26.643 304.000,27.372 304.000 C 27.676 304.000,28.006 304.675,28.153 305.599 C 28.306 306.556,28.608 307.157,28.904 307.099 C 29.177 307.044,29.400 307.358,29.401 307.795 C 29.401 308.232,29.708 308.648,30.082 308.720 C 30.719 308.843,31.304 309.889,31.166 310.659 C 31.012 311.522,31.248 311.957,31.764 311.759 C 32.103 311.628,32.433 311.873,32.591 312.371 C 32.736 312.827,33.031 313.200,33.248 313.200 C 33.593 313.200,34.437 315.027,34.489 315.888 C 34.499 316.060,34.843 316.435,35.254 316.723 C 35.664 317.010,36.000 317.500,36.000 317.810 C 36.000 318.148,36.241 318.282,36.600 318.145 C 36.979 317.999,37.200 318.150,37.200 318.554 C 37.200 318.905,37.560 319.418,38.000 319.693 C 38.440 319.968,38.800 320.599,38.800 321.096 C 38.800 321.593,38.991 322.000,39.224 322.000 C 39.457 322.000,39.536 322.180,39.400 322.400 C 39.264 322.620,39.433 322.800,39.776 322.800 C 40.119 322.800,40.400 322.948,40.400 323.128 C 40.400 323.659,42.630 326.000,43.136 326.000 C 43.391 326.000,43.627 326.405,43.661 326.900 C 43.779 328.644,43.811 328.792,44.043 328.697 C 44.477 328.517,45.593 329.687,45.355 330.072 C 45.226 330.282,45.492 330.551,45.947 330.670 C 46.401 330.789,46.882 331.227,47.014 331.643 C 47.146 332.059,47.512 332.400,47.827 332.400 C 48.142 332.400,48.400 332.760,48.400 333.200 C 48.400 333.733,48.667 334.000,49.200 334.000 C 49.733 334.000,50.000 334.267,50.000 334.800 C 50.000 335.333,50.267 335.600,50.800 335.600 C 51.333 335.600,51.600 335.867,51.600 336.400 C 51.600 336.933,51.867 337.200,52.400 337.200 C 52.865 337.200,53.200 337.467,53.200 337.837 C 53.200 338.188,53.560 338.569,54.000 338.684 C 54.440 338.799,54.800 339.159,54.800 339.484 C 54.800 339.809,55.160 340.169,55.600 340.284 C 56.043 340.400,56.400 340.830,56.400 341.247 C 56.400 341.733,56.683 342.000,57.200 342.000 C 57.733 342.000,58.000 342.267,58.000 342.800 C 58.000 343.333,58.267 343.600,58.800 343.600 C 59.265 343.600,59.600 343.867,59.600 344.237 C 59.600 344.588,59.960 344.969,60.400 345.084 C 60.840 345.199,61.200 345.559,61.200 345.884 C 61.200 346.209,61.560 346.569,62.000 346.684 C 62.443 346.800,62.800 347.230,62.800 347.647 C 62.800 348.118,63.082 348.400,63.553 348.400 C 63.981 348.400,64.401 348.761,64.525 349.235 C 64.793 350.260,65.933 350.128,66.557 349.000 C 66.801 348.560,67.111 348.110,67.246 348.000 C 67.382 347.890,67.988 346.720,68.595 345.400 C 69.680 343.036,71.410 339.309,73.607 334.600 C 76.705 327.962,80.934 319.837,84.200 314.249 C 84.640 313.496,86.235 310.747,87.745 308.140 C 90.333 303.672,95.479 295.638,96.035 295.200 C 96.174 295.090,96.584 294.460,96.945 293.800 C 97.306 293.140,98.400 291.520,99.375 290.200 C 100.350 288.880,101.651 287.080,102.266 286.200 C 102.880 285.320,103.972 283.861,104.693 282.957 C 105.413 282.054,106.407 280.755,106.901 280.071 C 108.328 278.098,114.457 270.645,115.054 270.157 C 115.353 269.914,116.136 269.035,116.796 268.205 C 117.456 267.375,119.751 264.807,121.898 262.497 C 125.259 258.882,128.225 256.025,138.400 246.607 C 140.981 244.218,147.970 238.594,152.400 235.341 C 157.204 231.814,164.014 227.051,164.800 226.670 C 165.130 226.510,166.660 225.583,168.200 224.610 C 173.468 221.283,183.797 215.430,190.000 212.257 C 198.095 208.116,199.173 207.525,198.134 207.802 C 196.639 208.200,196.800 210.227,195.608 176.000 C 195.367 169.070,194.996 161.330,194.784 158.800 C 194.572 156.270,194.215 151.320,193.989 147.800 C 193.764 144.280,193.314 138.700,192.988 135.400 C 192.663 132.100,192.217 126.946,191.997 123.948 C 191.777 120.949,191.428 117.603,191.222 116.513 C 191.015 115.424,190.730 112.657,190.588 110.366 C 190.446 108.075,190.085 104.580,189.785 102.600 C 189.485 100.620,189.041 96.672,188.798 93.827 C 188.555 90.982,188.272 88.516,188.168 88.348 C 188.064 88.180,187.709 85.218,187.378 81.764 C 187.047 78.311,186.695 75.354,186.597 75.195 C 186.498 75.035,186.147 72.461,185.815 69.475 C 185.484 66.488,185.045 63.270,184.839 62.322 C 184.633 61.375,184.344 59.160,184.196 57.400 C 184.049 55.640,183.692 53.120,183.404 51.800 C 183.116 50.480,182.757 47.870,182.607 46.000 C 182.456 44.130,182.092 41.610,181.796 40.400 C 181.501 39.190,181.140 36.760,180.994 35.000 C 180.848 33.240,180.491 30.720,180.200 29.400 C 179.909 28.080,179.546 25.740,179.392 24.200 C 179.239 22.660,178.878 20.320,178.590 19.000 C 178.302 17.680,177.947 15.250,177.801 13.600 C 177.656 11.950,177.375 9.964,177.176 9.188 C 176.978 8.411,176.623 6.341,176.388 4.588 C 176.152 2.834,175.866 1.085,175.752 0.700 C 175.533 -0.043,174.800 -0.274,174.800 0.400 M389.467 136.667 C 389.320 136.813,389.203 137.128,389.206 137.367 C 389.210 137.660,389.307 137.653,389.506 137.346 C 389.668 137.097,390.160 136.803,390.600 136.693 C 391.374 136.499,391.373 136.491,390.567 136.446 C 390.108 136.421,389.613 136.520,389.467 136.667 M375.776 143.387 C 375.349 143.710,375.180 143.975,375.400 143.975 C 375.620 143.975,376.149 143.710,376.576 143.387 C 377.004 143.064,377.173 142.800,376.953 142.800 C 376.733 142.800,376.204 143.064,375.776 143.387 M360.800 149.800 C 360.250 150.114,359.980 150.372,360.200 150.372 C 360.420 150.372,361.050 150.114,361.600 149.800 C 362.150 149.486,362.420 149.228,362.200 149.228 C 361.980 149.228,361.350 149.486,360.800 149.800 M357.289 151.065 C 355.353 152.018,355.989 152.146,358.040 151.216 C 359.008 150.777,359.530 150.418,359.200 150.418 C 358.870 150.418,358.010 150.709,357.289 151.065 M352.576 152.987 C 352.149 153.310,351.980 153.575,352.200 153.575 C 352.420 153.575,352.949 153.310,353.376 152.987 C 353.804 152.664,353.973 152.400,353.753 152.400 C 353.533 152.400,353.004 152.664,352.576 152.987 M349.011 154.225 C 347.582 154.970,347.083 155.453,348.200 155.010 C 348.640 154.835,349.630 154.454,350.400 154.164 C 351.305 153.822,351.517 153.630,351.000 153.620 C 350.560 153.612,349.665 153.884,349.011 154.225 M344.000 156.200 C 343.450 156.514,343.180 156.772,343.400 156.772 C 343.620 156.772,344.250 156.514,344.800 156.200 C 345.350 155.886,345.620 155.628,345.400 155.628 C 345.180 155.628,344.550 155.886,344.000 156.200 M335.200 159.400 C 334.650 159.714,334.380 159.972,334.600 159.972 C 334.820 159.972,335.450 159.714,336.000 159.400 C 336.550 159.086,336.820 158.828,336.600 158.828 C 336.380 158.828,335.750 159.086,335.200 159.400 M330.624 161.013 C 329.625 161.768,329.995 161.763,331.454 161.002 C 332.084 160.674,332.330 160.410,332.000 160.415 C 331.670 160.421,331.051 160.690,330.624 161.013 M325.600 162.600 C 324.294 163.347,324.751 163.355,326.454 162.616 C 327.194 162.294,327.530 162.031,327.200 162.030 C 326.870 162.029,326.150 162.286,325.600 162.600 M316.000 165.800 C 315.450 166.114,315.180 166.372,315.400 166.372 C 315.620 166.372,316.250 166.114,316.800 165.800 C 317.350 165.486,317.620 165.228,317.400 165.228 C 317.180 165.228,316.550 165.486,316.000 165.800 M311.200 167.400 C 310.650 167.714,310.380 167.972,310.600 167.972 C 310.820 167.972,311.450 167.714,312.000 167.400 C 312.550 167.086,312.820 166.828,312.600 166.828 C 312.380 166.828,311.750 167.086,311.200 167.400 M306.600 168.838 C 304.872 169.714,305.628 169.622,308.200 168.644 C 309.112 168.297,309.456 168.033,309.000 168.031 C 308.560 168.029,307.480 168.392,306.600 168.838 M296.600 172.038 C 294.872 172.914,295.628 172.822,298.200 171.844 C 299.112 171.497,299.456 171.233,299.000 171.231 C 298.560 171.229,297.480 171.592,296.600 172.038 M282.042 176.434 C 281.515 176.645,281.173 176.906,281.281 177.015 C 281.390 177.123,282.091 176.947,282.839 176.622 C 284.321 175.979,283.603 175.810,282.042 176.434 M276.976 178.230 C 276.549 178.576,276.439 178.737,276.731 178.587 C 277.024 178.437,277.744 178.169,278.331 177.991 C 279.189 177.733,279.237 177.662,278.576 177.634 C 278.124 177.615,277.404 177.883,276.976 178.230 M271.400 180.038 C 269.672 180.914,270.428 180.822,273.000 179.844 C 273.912 179.497,274.256 179.233,273.800 179.231 C 273.360 179.229,272.280 179.592,271.400 180.038 M267.242 181.234 C 266.715 181.445,266.373 181.706,266.481 181.815 C 266.590 181.923,267.291 181.747,268.039 181.422 C 269.521 180.779,268.803 180.610,267.242 181.234 M262.176 182.987 C 261.166 183.751,261.604 183.759,263.054 183.002 C 263.684 182.674,263.919 182.404,263.576 182.402 C 263.234 182.401,262.604 182.664,262.176 182.987 M257.642 184.434 C 257.115 184.645,256.773 184.906,256.881 185.015 C 256.990 185.123,257.691 184.947,258.439 184.622 C 259.921 183.979,259.203 183.810,257.642 184.434 M252.006 186.423 C 251.240 186.850,250.885 187.200,251.217 187.200 C 251.550 187.200,252.177 186.952,252.611 186.648 C 253.045 186.345,253.760 186.005,254.200 185.894 L 255.000 185.693 254.200 185.669 C 253.760 185.656,252.773 185.996,252.006 186.423 M248.000 187.800 C 246.694 188.547,247.151 188.555,248.854 187.816 C 249.594 187.494,249.930 187.231,249.600 187.230 C 249.270 187.229,248.550 187.486,248.000 187.800 M243.376 189.387 C 242.366 190.151,242.804 190.159,244.254 189.402 C 244.884 189.074,245.119 188.804,244.776 188.802 C 244.434 188.801,243.804 189.064,243.376 189.387 M234.576 192.587 C 233.566 193.351,234.004 193.359,235.454 192.602 C 236.084 192.274,236.319 192.004,235.976 192.002 C 235.634 192.001,235.004 192.264,234.576 192.587 M230.349 194.265 C 229.847 194.874,229.885 194.887,230.800 194.411 C 232.141 193.714,232.242 193.600,231.516 193.600 C 231.176 193.600,230.651 193.899,230.349 194.265 M222.176 197.387 C 221.749 197.710,221.580 197.975,221.800 197.975 C 222.020 197.975,222.549 197.710,222.976 197.387 C 223.404 197.064,223.573 196.800,223.353 196.800 C 223.133 196.800,222.604 197.064,222.176 197.387 M211.341 201.597 C 210.868 201.788,210.354 202.151,210.197 202.405 C 210.021 202.689,210.352 202.644,211.056 202.288 C 211.685 201.970,212.470 201.609,212.800 201.486 C 213.333 201.288,213.333 201.262,212.800 201.257 C 212.470 201.254,211.813 201.407,211.341 201.597 M200.525 206.700 C 200.106 207.085,199.960 207.272,200.203 207.116 C 200.445 206.960,201.083 206.656,201.622 206.441 C 202.240 206.194,202.359 206.041,201.944 206.025 C 201.584 206.011,200.945 206.315,200.525 206.700 M71.206 355.500 C 71.203 355.995,71.380 356.400,71.600 356.400 C 72.101 356.400,72.101 355.976,71.600 355.200 C 71.286 354.715,71.211 354.772,71.206 355.500 " stroke="none" fill="#fccb94" fill-rule="evenodd"></path><path id="path3" d="M302.000 170.600 C 301.450 170.914,301.180 171.172,301.400 171.172 C 301.620 171.172,302.250 170.914,302.800 170.600 C 303.350 170.286,303.620 170.028,303.400 170.028 C 303.180 170.028,302.550 170.286,302.000 170.600 M196.580 208.773 C 196.371 208.979,193.410 210.560,190.000 212.288 C 183.869 215.394,173.623 221.185,168.200 224.610 C 166.660 225.583,165.130 226.510,164.800 226.670 C 164.014 227.051,157.204 231.814,152.400 235.341 C 147.970 238.594,140.981 244.218,138.400 246.607 C 128.225 256.025,125.259 258.882,121.898 262.497 C 119.751 264.807,117.456 267.375,116.796 268.205 C 116.136 269.035,115.353 269.914,115.054 270.157 C 114.457 270.645,108.328 278.098,106.901 280.071 C 106.407 280.755,105.413 282.054,104.693 282.957 C 103.972 283.861,102.880 285.320,102.266 286.200 C 101.651 287.080,100.350 288.880,99.375 290.200 C 98.400 291.520,97.306 293.140,96.945 293.800 C 96.584 294.460,96.174 295.090,96.035 295.200 C 95.479 295.638,90.333 303.672,87.745 308.140 C 86.235 310.747,84.640 313.496,84.200 314.249 C 80.934 319.837,76.705 327.962,73.607 334.600 C 71.410 339.309,69.680 343.036,68.595 345.400 C 67.988 346.720,67.381 347.890,67.246 348.000 C 66.074 348.949,65.795 351.600,66.867 351.600 C 67.520 351.600,67.780 352.026,67.652 352.886 C 67.629 353.043,67.875 353.069,68.199 352.945 C 68.582 352.798,68.926 353.080,69.182 353.752 C 69.445 354.444,69.776 354.707,70.187 354.550 C 70.540 354.414,70.800 354.531,70.800 354.824 C 70.800 355.104,70.919 355.214,71.064 355.069 C 71.209 354.924,71.580 355.164,71.887 355.603 C 72.194 356.041,72.795 356.400,73.223 356.400 C 73.667 356.400,74.000 356.673,74.000 357.037 C 74.000 357.388,74.360 357.769,74.800 357.884 C 75.240 357.999,75.600 358.342,75.600 358.647 C 75.600 358.951,75.773 359.200,75.984 359.200 C 76.196 359.200,76.736 359.594,77.184 360.075 C 77.633 360.557,78.405 361.008,78.900 361.079 C 79.395 361.149,80.047 361.565,80.349 362.003 C 80.651 362.442,81.156 362.800,81.472 362.800 C 81.789 362.800,81.941 362.972,81.811 363.183 C 81.680 363.394,82.126 363.851,82.800 364.200 C 83.474 364.549,83.917 365.011,83.783 365.227 C 83.650 365.443,83.689 365.577,83.870 365.525 C 84.833 365.250,86.872 366.036,86.656 366.599 C 86.508 366.984,86.662 367.200,87.087 367.200 C 87.451 367.200,88.142 367.569,88.622 368.021 C 89.103 368.472,89.899 368.872,90.392 368.909 C 90.924 368.949,91.431 369.356,91.643 369.912 C 91.841 370.433,92.190 370.730,92.431 370.581 C 92.669 370.434,93.130 370.693,93.455 371.157 C 93.780 371.620,94.456 372.000,94.958 372.000 C 95.546 372.000,96.035 372.359,96.331 373.009 C 96.684 373.783,97.018 373.976,97.772 373.839 C 98.745 373.663,99.835 374.431,99.330 374.937 C 99.185 375.082,99.547 375.200,100.133 375.200 C 100.815 375.200,101.200 375.417,101.200 375.800 C 101.200 376.130,101.335 376.370,101.500 376.334 C 102.310 376.157,103.947 376.953,104.118 377.607 C 104.255 378.133,104.756 378.383,105.856 378.473 C 106.905 378.559,107.400 378.792,107.400 379.200 C 107.400 379.621,107.912 379.837,109.112 379.924 C 110.460 380.021,110.800 380.191,110.712 380.724 C 110.628 381.234,110.944 381.430,112.000 381.522 C 112.770 381.590,113.633 381.950,113.917 382.322 C 114.439 383.006,114.572 383.059,115.971 383.150 C 116.396 383.178,117.026 383.483,117.371 383.829 C 117.844 384.301,118.003 384.326,118.012 383.929 C 118.020 383.596,118.175 383.659,118.432 384.100 C 118.691 384.545,119.325 384.800,120.173 384.800 C 121.170 384.800,121.559 385.002,121.716 385.600 C 121.876 386.211,122.262 386.400,123.348 386.400 C 124.360 386.400,124.895 386.630,125.198 387.196 C 125.432 387.634,125.754 387.973,125.912 387.949 C 127.419 387.722,129.600 388.082,129.600 388.557 C 129.600 389.296,130.486 389.600,132.633 389.600 C 134.133 389.600,134.400 389.721,134.400 390.400 C 134.400 391.102,134.667 391.200,136.586 391.200 C 138.362 391.200,138.852 391.350,139.200 392.000 C 139.536 392.627,140.038 392.800,141.525 392.800 C 142.927 392.800,143.601 393.009,144.107 393.600 C 144.638 394.220,145.287 394.400,146.996 394.400 C 148.208 394.400,149.200 394.580,149.200 394.800 C 149.200 395.020,149.470 395.200,149.800 395.200 C 150.130 395.200,150.400 395.380,150.400 395.600 C 150.400 395.834,151.748 396.000,153.643 396.000 C 156.277 396.000,156.845 396.106,156.668 396.567 C 156.350 397.396,157.249 397.600,161.233 397.600 C 163.195 397.600,164.779 397.735,164.753 397.900 C 164.619 398.745,164.860 399.152,165.375 398.954 C 165.725 398.820,166.058 397.877,166.224 396.547 C 166.374 395.344,166.740 394.117,167.038 393.820 C 167.335 393.522,167.700 392.496,167.850 391.540 C 167.999 390.583,168.454 389.173,168.861 388.406 C 169.267 387.639,169.600 386.604,169.600 386.104 C 169.600 385.605,169.960 384.525,170.400 383.704 C 170.840 382.884,171.206 381.759,171.214 381.206 C 171.221 380.653,171.575 379.480,172.000 378.600 C 172.425 377.720,172.779 376.455,172.786 375.789 C 172.794 375.123,173.062 374.204,173.382 373.747 C 173.702 373.290,174.145 371.792,174.366 370.418 C 174.587 369.044,174.931 367.713,175.129 367.460 C 175.327 367.207,175.605 366.112,175.747 365.026 C 175.889 363.940,176.265 362.655,176.583 362.170 C 176.901 361.685,177.280 360.323,177.426 359.144 C 177.572 357.965,177.915 356.640,178.188 356.200 C 178.461 355.760,178.815 354.320,178.975 353.000 C 179.134 351.680,179.503 350.227,179.795 349.772 C 180.086 349.316,180.450 347.876,180.604 346.572 C 180.757 345.267,181.127 343.692,181.425 343.072 C 181.723 342.452,182.084 340.832,182.228 339.472 C 182.372 338.112,182.722 336.629,183.005 336.175 C 183.288 335.721,183.650 334.101,183.808 332.575 C 183.966 331.049,184.319 329.253,184.592 328.584 C 184.865 327.916,185.220 326.116,185.381 324.584 C 185.541 323.053,185.915 321.260,186.212 320.600 C 186.508 319.940,186.873 317.960,187.023 316.200 C 187.173 314.440,187.525 312.280,187.805 311.400 C 188.085 310.520,188.430 308.143,188.570 306.118 C 188.711 304.092,189.069 301.842,189.365 301.118 C 189.661 300.393,190.032 297.758,190.188 295.262 C 190.344 292.767,190.702 290.157,190.983 289.462 C 191.265 288.768,191.610 285.791,191.752 282.847 C 191.893 279.903,192.262 276.573,192.571 275.447 C 192.890 274.288,193.242 270.364,193.384 266.400 C 193.521 262.550,193.880 258.140,194.182 256.600 C 194.557 254.688,194.818 248.662,195.005 237.600 C 195.407 213.834,195.607 210.670,196.788 209.413 C 197.656 208.489,197.465 207.904,196.580 208.773 " stroke="none" fill="#fce3ab" fill-rule="evenodd"></path><path id="path4" d="M387.600 138.375 C 386.390 139.009,383.780 140.271,381.800 141.180 C 379.820 142.088,377.480 143.167,376.600 143.577 C 375.720 143.988,374.100 144.718,373.000 145.200 C 371.900 145.682,370.280 146.420,369.400 146.839 C 368.520 147.259,367.640 147.602,367.444 147.601 C 367.248 147.600,366.348 147.938,365.444 148.352 C 364.540 148.766,362.810 149.505,361.600 149.995 C 360.390 150.484,358.630 151.226,357.689 151.643 C 356.748 152.059,355.786 152.400,355.550 152.400 C 355.314 152.400,354.554 152.662,353.860 152.982 C 353.167 153.302,351.790 153.859,350.800 154.220 C 348.184 155.172,345.383 156.207,342.200 157.397 C 340.660 157.972,338.770 158.632,338.000 158.863 C 337.230 159.094,336.413 159.435,336.184 159.621 C 335.956 159.806,335.056 160.140,334.184 160.363 C 332.130 160.889,327.574 162.379,326.787 162.784 C 326.450 162.957,325.550 163.230,324.787 163.391 C 324.024 163.553,322.860 163.912,322.200 164.190 C 321.540 164.468,317.220 165.910,312.600 167.394 C 307.980 168.878,303.570 170.321,302.800 170.602 C 299.924 171.648,294.884 173.200,294.352 173.202 C 294.048 173.204,293.297 173.467,292.683 173.788 C 292.069 174.108,290.899 174.491,290.083 174.639 C 289.267 174.786,288.150 175.129,287.600 175.400 C 287.050 175.671,285.907 176.019,285.060 176.172 C 284.213 176.326,282.953 176.694,282.260 176.990 C 281.567 177.286,279.380 178.015,277.400 178.611 C 275.420 179.206,273.170 179.927,272.400 180.212 C 270.401 180.953,267.322 181.951,265.000 182.609 C 263.900 182.921,262.640 183.345,262.200 183.552 C 261.396 183.928,258.949 184.762,255.600 185.800 C 251.983 186.921,249.773 187.671,248.598 188.176 C 247.938 188.461,246.768 188.830,245.998 188.998 C 245.229 189.165,244.245 189.549,243.811 189.851 C 243.377 190.153,242.706 190.400,242.319 190.400 C 241.698 190.400,238.561 191.519,235.000 193.012 C 234.340 193.288,232.810 193.870,231.600 194.304 C 226.617 196.090,223.355 197.388,222.611 197.879 C 222.177 198.166,221.540 198.400,221.196 198.400 C 220.851 198.400,219.863 198.760,219.000 199.200 C 218.137 199.640,217.190 200.000,216.895 200.000 C 216.600 200.000,215.693 200.338,214.879 200.752 C 213.177 201.617,211.786 202.243,207.600 204.027 C 201.843 206.480,197.378 208.741,196.609 209.590 C 195.634 210.668,195.388 214.966,195.005 237.600 C 194.818 248.662,194.557 254.688,194.182 256.600 C 193.880 258.140,193.521 262.550,193.384 266.400 C 193.242 270.364,192.890 274.288,192.571 275.447 C 192.262 276.573,191.893 279.903,191.752 282.847 C 191.610 285.791,191.265 288.768,190.983 289.462 C 190.702 290.157,190.344 292.767,190.188 295.262 C 190.032 297.758,189.661 300.393,189.365 301.118 C 189.069 301.842,188.711 304.092,188.570 306.118 C 188.430 308.143,188.085 310.520,187.805 311.400 C 187.525 312.280,187.173 314.440,187.023 316.200 C 186.873 317.960,186.508 319.940,186.212 320.600 C 185.915 321.260,185.541 323.053,185.381 324.584 C 185.220 326.116,184.865 327.916,184.592 328.584 C 184.319 329.253,183.966 331.049,183.808 332.575 C 183.650 334.101,183.288 335.721,183.005 336.175 C 182.722 336.629,182.372 338.112,182.228 339.472 C 182.084 340.832,181.723 342.452,181.425 343.072 C 181.127 343.692,180.757 345.267,180.604 346.572 C 180.450 347.876,180.086 349.316,179.795 349.772 C 179.503 350.227,179.134 351.680,178.975 353.000 C 178.815 354.320,178.461 355.760,178.188 356.200 C 177.915 356.640,177.572 357.965,177.426 359.144 C 177.280 360.323,176.901 361.685,176.583 362.170 C 176.265 362.655,175.889 363.940,175.747 365.026 C 175.605 366.112,175.327 367.207,175.129 367.460 C 174.931 367.713,174.587 369.044,174.366 370.418 C 174.145 371.792,173.702 373.290,173.382 373.747 C 173.062 374.204,172.794 375.123,172.786 375.789 C 172.779 376.455,172.425 377.720,172.000 378.600 C 171.575 379.480,171.221 380.653,171.214 381.206 C 171.206 381.759,170.840 382.884,170.400 383.704 C 169.960 384.525,169.600 385.605,169.600 386.104 C 169.600 386.604,169.267 387.639,168.861 388.406 C 168.454 389.173,167.996 390.605,167.842 391.588 C 167.688 392.571,167.371 393.495,167.136 393.639 C 166.357 394.121,165.652 399.200,166.365 399.200 C 166.565 399.200,166.685 398.901,166.632 398.536 C 166.578 398.170,166.929 397.045,167.411 396.036 C 167.893 395.026,168.416 393.499,168.573 392.642 C 168.730 391.784,169.095 390.704,169.384 390.242 C 169.674 389.779,170.034 388.699,170.184 387.842 C 170.335 386.984,170.695 385.904,170.984 385.442 C 171.274 384.979,171.636 383.886,171.789 383.014 C 171.943 382.141,172.302 380.971,172.587 380.414 C 172.872 379.856,173.239 378.594,173.403 377.609 C 173.567 376.624,173.927 375.454,174.203 375.009 C 174.479 374.564,174.807 373.382,174.933 372.382 C 175.059 371.382,175.440 370.032,175.779 369.382 C 176.118 368.732,176.396 367.696,176.398 367.080 C 176.399 366.464,176.660 365.458,176.977 364.844 C 177.295 364.230,177.763 362.528,178.019 361.062 C 178.274 359.596,178.634 358.303,178.818 358.189 C 179.003 358.075,179.266 357.131,179.403 356.091 C 179.541 355.051,179.980 353.210,180.380 352.000 C 180.780 350.790,181.308 348.855,181.553 347.700 C 181.799 346.545,182.202 344.655,182.450 343.500 C 182.697 342.345,183.223 340.230,183.617 338.800 C 184.012 337.370,184.443 335.300,184.574 334.200 C 184.705 333.100,185.072 331.480,185.389 330.600 C 185.706 329.720,185.981 328.280,186.000 327.400 C 186.019 326.520,186.299 325.080,186.622 324.200 C 186.945 323.320,187.372 320.951,187.571 318.937 C 187.770 316.922,188.118 314.926,188.345 314.502 C 188.572 314.079,188.933 312.037,189.147 309.966 C 189.360 307.895,189.715 305.732,189.935 305.160 C 190.155 304.588,190.451 302.608,190.594 300.760 C 190.736 298.912,191.103 296.229,191.409 294.798 C 191.715 293.367,192.073 290.667,192.204 288.798 C 192.336 286.929,192.709 283.847,193.033 281.948 C 193.357 280.050,193.788 275.820,193.990 272.548 C 194.193 269.277,194.543 265.657,194.768 264.504 C 194.993 263.351,195.369 257.141,195.602 250.704 C 195.835 244.267,196.129 238.730,196.255 238.400 C 196.381 238.070,196.608 231.642,196.759 224.114 L 197.033 210.429 197.986 209.414 C 198.511 208.857,199.244 208.400,199.616 208.400 C 199.988 208.400,200.750 208.040,201.309 207.600 C 201.869 207.160,202.543 206.800,202.809 206.800 C 203.254 206.800,204.036 206.438,208.079 204.360 C 208.893 203.942,209.904 203.600,210.325 203.600 C 210.747 203.600,211.550 203.240,212.109 202.800 C 212.669 202.360,213.479 202.000,213.909 202.000 C 214.340 202.000,215.150 201.640,215.709 201.200 C 216.269 200.760,217.058 200.394,217.463 200.386 C 217.868 200.379,218.920 200.025,219.800 199.600 C 220.680 199.175,221.626 198.821,221.901 198.814 C 222.177 198.806,223.075 198.440,223.896 198.000 C 224.716 197.560,225.616 197.200,225.896 197.200 C 226.175 197.200,227.075 196.840,227.896 196.400 C 228.716 195.960,229.783 195.600,230.266 195.600 C 230.748 195.600,231.415 195.328,231.748 194.995 C 232.081 194.662,232.949 194.274,233.677 194.132 C 234.405 193.991,235.627 193.543,236.394 193.138 C 237.161 192.732,238.106 192.400,238.496 192.400 C 238.885 192.400,239.875 192.040,240.696 191.600 C 241.516 191.160,242.506 190.800,242.896 190.800 C 243.285 190.800,244.275 190.440,245.096 190.000 C 245.916 189.560,246.996 189.200,247.496 189.200 C 247.995 189.200,249.075 188.840,249.896 188.400 C 250.716 187.960,251.864 187.600,252.445 187.600 C 253.026 187.600,253.710 187.350,253.964 187.043 C 254.218 186.737,255.275 186.361,256.313 186.208 C 257.351 186.054,258.470 185.698,258.800 185.415 C 259.130 185.133,260.120 184.775,261.000 184.621 C 261.880 184.467,262.975 184.100,263.433 183.805 C 263.892 183.510,265.115 183.142,266.153 182.986 C 267.191 182.831,268.266 182.477,268.543 182.200 C 268.820 181.923,269.846 181.567,270.823 181.410 C 271.800 181.252,272.979 180.884,273.442 180.591 C 273.904 180.298,274.984 179.935,275.842 179.784 C 276.699 179.634,277.764 179.283,278.209 179.006 C 278.654 178.728,279.824 178.371,280.809 178.212 C 281.794 178.053,282.964 177.693,283.409 177.412 C 283.854 177.131,285.024 176.769,286.009 176.607 C 286.994 176.445,288.070 176.082,288.400 175.800 C 288.730 175.518,289.810 175.156,290.800 174.996 C 291.790 174.836,293.086 174.457,293.680 174.153 C 294.274 173.849,295.181 173.600,295.696 173.600 C 296.210 173.600,297.289 173.265,298.093 172.855 C 298.896 172.445,300.307 171.989,301.228 171.842 C 302.148 171.695,303.279 171.310,303.740 170.987 C 304.201 170.664,305.021 170.400,305.563 170.400 C 306.104 170.400,307.279 170.061,308.174 169.646 C 309.068 169.231,310.520 168.707,311.400 168.482 C 313.028 168.066,314.236 167.670,317.800 166.382 C 318.900 165.985,320.430 165.533,321.200 165.379 C 321.970 165.224,322.955 164.851,323.389 164.549 C 323.823 164.247,324.550 164.000,325.004 164.000 C 325.459 164.000,326.537 163.640,327.400 163.200 C 328.263 162.760,329.429 162.400,329.991 162.400 C 330.552 162.400,331.684 162.040,332.504 161.600 C 333.325 161.160,334.315 160.800,334.704 160.800 C 335.094 160.800,336.084 160.440,336.904 160.000 C 337.725 159.560,338.715 159.200,339.104 159.200 C 339.494 159.200,340.484 158.840,341.304 158.400 C 342.125 157.960,343.115 157.600,343.504 157.600 C 343.894 157.600,344.884 157.240,345.704 156.800 C 346.525 156.360,347.515 156.000,347.904 156.000 C 348.294 156.000,349.284 155.640,350.104 155.200 C 350.925 154.760,351.892 154.400,352.251 154.400 C 352.611 154.400,353.467 154.062,354.153 153.649 C 354.839 153.235,356.057 152.781,356.860 152.638 C 357.663 152.495,358.540 152.114,358.809 151.789 C 359.078 151.465,359.637 151.200,360.050 151.200 C 360.464 151.200,361.475 150.840,362.296 150.400 C 363.116 149.960,364.061 149.599,364.394 149.597 C 364.727 149.596,365.540 149.237,366.200 148.800 C 366.860 148.363,367.724 148.004,368.121 148.003 C 368.517 148.001,369.552 147.640,370.421 147.200 C 371.289 146.760,372.711 146.040,373.579 145.600 C 374.448 145.160,375.416 144.800,375.730 144.800 C 376.045 144.800,376.517 144.542,376.779 144.226 C 377.041 143.910,377.815 143.529,378.499 143.378 C 379.182 143.228,381.068 142.407,382.690 141.553 C 384.311 140.699,385.872 140.000,386.157 140.000 C 386.442 140.000,386.990 139.653,387.374 139.229 C 387.757 138.805,388.775 138.339,389.636 138.194 C 390.496 138.049,391.200 137.766,391.200 137.565 C 391.200 136.899,389.826 137.208,387.600 138.375 " stroke="none" fill="#fceeca" fill-rule="evenodd"></path></g></svg>